<?xml version="1.0" encoding="UTF-8"?>
<svg xmlns="http://www.w3.org/2000/svg" viewBox="0 0 256 256" width="256" height="256" role="img" aria-label="Clear night">
  <title>Clear night</title>
  <path d="M 47 124 a 58 58 0 1 0 116 0 a 58 58 0 1 0 -116 0 M 78 104 a 58 58 0 1 0 116 0 a 58 58 0 1 0 -116 0" fill="#FFD45A" stroke="#EAA21A" stroke-width="5" fill-rule="evenodd"/>
  <polygon points="173,68 175.16,74.84 182,77 175.16,79.16 173,86 170.84,79.16 164,77 170.84,74.84" fill="#FFD447"/>
  <polygon points="202,95 204.88,104.12 214,107 204.88,109.88 202,119 199.12,109.88 190,107 199.12,104.12" fill="#FFD447"/>
  <polygon points="177,135 178.68,140.32 184,142 178.68,143.68 177,149 175.32,143.68 170,142 175.32,140.32" fill="#FFD447"/>
  <polygon points="211,58 212.44,62.56 217,64 212.44,65.44 211,70 209.56,65.44 205,64 209.56,62.56" fill="#FFD447"/>
</svg>
