<?xml version="1.0" encoding="UTF-8"?>
<svg xmlns="http://www.w3.org/2000/svg" viewBox="0 0 256 256" width="256" height="256" role="img" aria-label="Windy">
  <title>Windy</title>
  <path d="M25 83H91C111 83 111 54 93 54C83 54 75 60 72 69" fill="none" stroke="#6D9CAF" stroke-width="7" stroke-linecap="round" stroke-linejoin="round" opacity="1"/>
  <path d="M22 116H134C154 116 154 87 136 87C125 87 117 94 114 103" fill="none" stroke="#87AFBF" stroke-width="7" stroke-linecap="round" stroke-linejoin="round" opacity="1"/>
  <path d="M34 150H111" fill="none" stroke="#6D9CAF" stroke-width="7" stroke-linecap="round" stroke-linejoin="round" opacity="0.95"/>
  <path d="M157 211C161 178 166 141 181 99" fill="none" stroke="#7A4A24" stroke-width="10" stroke-linecap="round"/>
  <path d="M173 151C188 139 198 125 207 103" fill="none" stroke="#7A4A24" stroke-width="6" stroke-linecap="round"/>
  <path d="M168 175C154 161 142 153 129 148" fill="none" stroke="#7A4A24" stroke-width="5" stroke-linecap="round"/>
  <path d="M173 78C195 65 221 78 223 103C244 110 243 140 220 149C214 169 185 174 171 157C151 160 132 145 135 124C118 109 126 84 148 82C153 70 163 64 173 78Z" fill="#69BE45" stroke="#3E8B33" stroke-width="5" stroke-linejoin="round"/>
  <path d="M177 91C190 86 205 93 210 107" fill="none" stroke="#A7E16E" stroke-width="6" stroke-linecap="round" opacity="0.55"/>
  <path d="M49 190H171" fill="none" stroke="#4A8B36" stroke-width="6" stroke-linecap="round" opacity="0.9"/>
</svg>
